<svg preserveAspectRatio="none" width="100%" height="100%" overflow="visible" style="display: block;" viewBox="0 0 21.9993 22.0004" fill="none" xmlns="http://www.w3.org/2000/svg">
<g id="Group">
<path id="Vector" d="M11.0005 0C7.2892 0 4.00772 1.83817 2.01562 4.65342H19.9861C17.9932 1.83817 14.7118 0 11.0005 0Z" fill="var(--fill-0, #E32522)"/>
<path id="Vector_2" d="M19.9845 4.6543H2.01479C1.44371 5.4611 0.978961 6.34821 0.640625 7.29555H21.3594C21.0203 6.34821 20.5556 5.4611 19.9845 4.6543Z" fill="var(--fill-0, white)"/>
<path id="Vector_3" d="M21.3598 7.29492H0.640235C0.226053 8.4527 0 9.69971 0 11.0003C0 12.3008 0.241668 13.6341 0.683364 14.8253H21.3159C21.7576 13.6341 21.9993 12.3454 21.9993 11.0003C21.9993 9.65509 21.774 8.4527 21.3598 7.29492Z" fill="var(--fill-0, #0032B0)"/>
<path id="Vector_4" d="M2 17.3262C3.9906 20.1533 7.27952 22.0004 10.9997 22.0004C14.7199 22.0004 18.0074 20.1526 19.998 17.3262H2Z" fill="var(--fill-0, #E32522)"/>
<path id="Vector_5" d="M0.683594 14.8242C1.01524 15.7188 1.45991 16.5575 2.0005 17.3249H19.9985C20.5391 16.5575 20.9845 15.7188 21.3161 14.8242H0.683594Z" fill="var(--fill-0, white)"/>
</g>
</svg>
