<svg width="24" height="24" viewBox="0 0 24 24" fill="none" xmlns="http://www.w3.org/2000/svg">
<mask id="mask0_1369_2100" style="mask-type:alpha" maskUnits="userSpaceOnUse" x="0" y="0" width="24" height="24">
<rect width="24" height="24" fill="white"/>
</mask>
<g mask="url(#mask0_1369_2100)">
<mask id="mask1_1369_2100" style="mask-type:alpha" maskUnits="userSpaceOnUse" x="4" y="4" width="16" height="16">
<rect x="4.36353" y="4.36377" width="15.2727" height="15.2727" fill="#D9D9D9"/>
</mask>
<g mask="url(#mask1_1369_2100)">
<path d="M17.0591 17.7275C15.7333 17.7275 14.4235 17.4385 13.1295 16.8604C11.8356 16.2824 10.6583 15.4631 9.5977 14.4025C8.5371 13.3419 7.71778 12.1646 7.13975 10.8707C6.56172 9.57674 6.27271 8.26689 6.27271 6.94113C6.27271 6.75022 6.33634 6.59113 6.46361 6.46386C6.59089 6.33659 6.74998 6.27295 6.94089 6.27295H9.51816C9.66664 6.27295 9.79922 6.32333 9.91589 6.42409C10.0326 6.52484 10.1015 6.64416 10.1227 6.78204L10.5363 9.00931C10.5576 9.17901 10.5523 9.32219 10.5204 9.43886C10.4886 9.55552 10.4303 9.65628 10.3454 9.74113L8.80225 11.3002C9.01437 11.6926 9.26627 12.0718 9.55793 12.4377C9.8496 12.8036 10.1704 13.1563 10.5204 13.4957C10.8492 13.8245 11.1939 14.1294 11.5545 14.4104C11.9151 14.6915 12.2969 14.9487 12.7 15.182L14.1954 13.6866C14.2909 13.5911 14.4155 13.5195 14.5693 13.4718C14.7231 13.4241 14.8742 13.4108 15.0227 13.432L17.2182 13.8775C17.3666 13.9199 17.4886 13.9968 17.5841 14.1082C17.6795 14.2195 17.7273 14.3442 17.7273 14.482V17.0593C17.7273 17.2502 17.6636 17.4093 17.5363 17.5366C17.4091 17.6639 17.25 17.7275 17.0591 17.7275Z" fill="#D9F765"/>
</g>
</g>
</svg>
