<svg width="24" height="24" viewBox="0 0 24 24" fill="none" xmlns="http://www.w3.org/2000/svg">
<mask id="mask0_1369_2112" style="mask-type:alpha" maskUnits="userSpaceOnUse" x="0" y="0" width="24" height="24">
<rect width="24" height="24" fill="white"/>
</mask>
<g mask="url(#mask0_1369_2112)">
<mask id="mask1_1369_2112" style="mask-type:alpha" maskUnits="userSpaceOnUse" x="5" y="4" width="14" height="15">
<rect x="5" y="4.96484" width="14" height="14" fill="#D9D9D9"/>
</mask>
<g mask="url(#mask1_1369_2112)">
<path d="M7.3339 16.6317C7.01307 16.6317 6.73842 16.5174 6.50994 16.289C6.28147 16.0605 6.16724 15.7858 6.16724 15.465V8.46501C6.16724 8.14417 6.28147 7.86952 6.50994 7.64105C6.73842 7.41258 7.01307 7.29834 7.3339 7.29834H16.6672C16.9881 7.29834 17.2627 7.41258 17.4912 7.64105C17.7197 7.86952 17.8339 8.14417 17.8339 8.46501V15.465C17.8339 15.7858 17.7197 16.0605 17.4912 16.289C17.2627 16.5174 16.9881 16.6317 16.6672 16.6317H7.3339ZM12.0006 12.5483L16.6672 9.63167V8.46501L12.0006 11.3817L7.3339 8.46501V9.63167L12.0006 12.5483Z" fill="#D9F765"/>
</g>
</g>
</svg>
