<svg preserveAspectRatio="none" width="100%" height="100%" overflow="visible" style="display: block;" viewBox="0 0 29 28" fill="none" xmlns="http://www.w3.org/2000/svg">
<g id="simple-icons:line" clip-path="url(#clip0_0_158)">
<path id="Vector" d="M23.3994 11.5068C23.5962 11.5144 23.7823 11.5952 23.9188 11.7323C24.0553 11.8695 24.1315 12.0522 24.1315 12.2424C24.1315 12.4326 24.0553 12.6154 23.9188 12.7525C23.7823 12.8896 23.5962 12.9704 23.3994 12.978H21.2788V14.2905H23.3994C23.5018 14.2866 23.604 14.3026 23.6999 14.3378C23.7957 14.3729 23.8832 14.4264 23.9572 14.4949C24.0311 14.5635 24.0899 14.6458 24.1301 14.7369C24.1702 14.828 24.1909 14.9259 24.1909 15.0249C24.1909 15.1239 24.1702 15.2219 24.1301 15.3129C24.0899 15.404 24.0311 15.4863 23.9572 15.5549C23.8832 15.6235 23.7957 15.6769 23.6999 15.7121C23.604 15.7472 23.5018 15.7633 23.3994 15.7593H20.5163C20.3152 15.7584 20.1227 15.6807 19.9808 15.5432C19.8388 15.4057 19.759 15.2196 19.7587 15.0255V9.45933C19.7587 9.05683 20.0994 8.72433 20.5199 8.72433H23.403C23.6049 8.7248 23.7983 8.80268 23.9408 8.94085C24.0832 9.07901 24.1629 9.26615 24.1624 9.46108C24.162 9.65602 24.0813 9.84278 23.9382 9.98029C23.7951 10.1178 23.6013 10.1948 23.3994 10.1943H21.2788V11.5068H23.3994ZM18.7413 15.0255C18.7403 15.22 18.6595 15.4063 18.5166 15.5434C18.3737 15.6805 18.1803 15.7573 17.9788 15.757C17.8594 15.7593 17.7412 15.734 17.634 15.6833C17.5268 15.6326 17.4338 15.5578 17.3625 15.4653L14.4106 11.5955V15.0255C14.3973 15.2112 14.3115 15.3851 14.1705 15.5122C14.0296 15.6392 13.844 15.7098 13.6511 15.7098C13.4583 15.7098 13.2727 15.6392 13.1318 15.5122C12.9908 15.3851 12.905 15.2112 12.8917 15.0255V9.45933C12.8914 9.26573 12.9706 9.0799 13.1119 8.94256C13.2532 8.80523 13.4452 8.72759 13.6457 8.72667C13.8813 8.72667 14.0988 8.848 14.2438 9.023L17.2188 12.908V9.45933C17.2188 9.05683 17.5595 8.72433 17.98 8.72433C18.3969 8.72433 18.7413 9.05683 18.7413 9.45933V15.0255ZM11.8042 15.0255C11.8041 15.122 11.7842 15.2176 11.7458 15.3067C11.7074 15.3958 11.6512 15.4767 11.5804 15.5449C11.5096 15.613 11.4256 15.667 11.3332 15.7038C11.2407 15.7406 11.1417 15.7595 11.0417 15.7593C10.8407 15.7584 10.6482 15.6807 10.5062 15.5432C10.3643 15.4057 10.2844 15.2196 10.2841 15.0255V9.45933C10.2841 9.05683 10.6249 8.72433 11.0454 8.72433C11.4635 8.72433 11.8042 9.05683 11.8042 9.45933V15.0255ZM8.82446 15.7593H5.94137C5.74008 15.7581 5.54737 15.6804 5.40491 15.5431C5.26246 15.4058 5.18171 15.2199 5.18013 15.0255V9.45933C5.18013 9.05683 5.5245 8.72433 5.94137 8.72433C6.36187 8.72433 6.70263 9.05683 6.70263 9.45933V14.2905H8.82446C9.02095 14.2981 9.20678 14.3787 9.34304 14.5156C9.47929 14.6526 9.55539 14.8351 9.55539 15.0249C9.55539 15.2148 9.47929 15.3973 9.34304 15.5342C9.20678 15.6711 9.02095 15.7518 8.82446 15.7593ZM29 12.033C29 5.76683 22.4931 0.667333 14.5 0.667333C6.50688 0.667333 0 5.76683 0 12.033C0 17.6458 5.15958 22.3487 12.1256 23.2423C12.5981 23.338 13.2409 23.5433 13.404 23.9307C13.549 24.2818 13.4995 24.8243 13.45 25.1907L13.2518 26.3807C13.1974 26.7318 12.9618 27.7643 14.5193 27.1332C16.0793 26.5043 22.8762 22.3755 25.9212 18.9957C28.0043 16.7918 29 14.5343 29 12.033Z" fill="var(--fill-0, #D9F765)"/>
</g>
<defs>
<clipPath id="clip0_0_158">
<rect width="29" height="28" fill="white"/>
</clipPath>
</defs>
</svg>
