<svg preserveAspectRatio="none" width="100%" height="100%" overflow="visible" style="display: block;" viewBox="0 0 178 105" fill="none" xmlns="http://www.w3.org/2000/svg">
<g id="Layer_1" clip-path="url(#clip0_0_162)">
<g id="Group">
<path id="Vector" d="M10.4823 91.7947C9.73074 92.283 8.79295 92.5238 7.65564 92.5238C6.31879 92.5238 5.24799 92.1827 4.43657 91.4936C3.66505 90.8448 3.2793 90.0019 3.2793 88.965C3.2793 87.9281 3.6717 87.1253 4.45652 86.4497C5.27459 85.754 6.33874 85.3994 7.65564 85.3994C8.67324 85.3994 9.57112 85.6202 10.3493 86.0684C11.2139 86.5634 11.6462 87.2056 11.6462 87.9883H9.35829C9.27182 87.2792 8.67989 86.9246 7.60243 86.9246C6.90408 86.9246 6.36535 87.1387 5.99955 87.5668C5.7069 87.9348 5.56058 88.403 5.56058 88.965C5.56058 89.5269 5.71355 89.9885 6.0195 90.3497C6.37865 90.7845 6.90408 91.0053 7.60243 91.0053C8.65993 91.0053 9.24522 90.5838 9.35829 89.741H11.6462C11.6462 90.6106 11.2605 91.2996 10.4823 91.8081V91.7947Z" fill="var(--fill-0, white)"/>
<path id="Vector_2" d="M18.8422 92.3902V89.5672H15.8625V92.3902H13.5879V85.54H15.8625V88.0419H18.8422V85.5534H21.1101V92.3902H18.8422Z" fill="var(--fill-0, white)"/>
<path id="Vector_3" d="M23.4453 92.3902V85.54H25.7199V92.3902H23.4453Z" fill="var(--fill-0, white)"/>
<path id="Vector_4" d="M32.5303 92.3901H29.9164L27.1895 85.5399H29.5373L31.2533 90.6307L32.9892 85.5399H35.3569L32.5303 92.3901Z" fill="var(--fill-0, white)"/>
<path id="Vector_5" d="M42.3608 92.3902L41.8287 91.166H38.7759L38.2239 92.3902H35.916L39.1617 85.54H41.4696L44.7352 92.3902H42.3675H42.3608ZM40.319 87.4332L39.308 89.8348H41.2767L40.3256 87.4332H40.319Z" fill="var(--fill-0, white)"/>
<path id="Vector_6" d="M50.6278 92.3902H48.014L45.2871 85.54H47.6349L49.3509 90.6308L51.0868 85.54H53.4545L50.6278 92.3902Z" fill="var(--fill-0, white)"/>
<path id="Vector_7" d="M54.8848 92.3902V85.54H57.1594V92.3902H54.8848Z" fill="var(--fill-0, white)"/>
<path id="Vector_8" d="M63.8173 87.0653V92.3902H61.5493V87.0653H58.9688V85.54H66.4311V87.0653H63.8173Z" fill="var(--fill-0, white)"/>
<path id="Vector_9" d="M73.4613 92.3902V89.5672H70.4817V92.3902H68.207V85.54H70.4817V88.0419H73.4613V85.5534H75.7293V92.3902H73.4613Z" fill="var(--fill-0, white)"/>
<path id="Vector_10" d="M78.0625 92.3902V85.54H80.3371V92.3902H78.0625Z" fill="var(--fill-0, white)"/>
</g>
<path id="Vector_11" d="M177.999 61.8786C153.829 37.5418 131.549 61.2364 131.549 61.2364C124.186 62.8954 116.79 64.3738 109.481 65.685L113.179 61.611C145.123 55.5503 139.67 26.7314 139.67 26.7314C107.519 27.9958 111.084 61.9723 111.084 61.9723C111.124 61.9723 111.157 61.9589 111.197 61.9522L108.696 64.6682L107.652 65.7853H107.665L107.426 66.0462C56.4659 75.0237 10.348 76.1275 10.348 76.1275C5.16026 74.1875 4.7479 73.7259 4.7479 73.7259C1.90128 76.5422 13.0084 78.141 13.0084 78.141C20.6171 79.5659 50.6463 75.7261 78.5803 71.5585C78.5537 71.5384 78.5271 71.5183 78.4939 71.4983C78.4939 71.4983 78.5338 71.5183 78.6003 71.5518C89.3217 69.953 99.7238 68.3073 108.437 66.8958C108.922 67.7989 111.875 70.06 111.875 70.06C112.746 100.203 146.686 100.892 146.686 100.892C145.802 67.3641 113.751 68.4746 113.751 68.4746L109.933 66.8891C109.767 66.8222 109.62 66.7754 109.481 66.7286C122.57 64.6013 131.589 63.0359 131.589 63.0359C155.452 84.5095 178.006 61.8652 178.006 61.8652L177.999 61.8786ZM134.761 60.4203C163.56 57.1223 173.117 60.5808 175.226 61.611C169.526 59.1961 135.173 61.591 134.222 61.6913L134.761 60.427V60.4203ZM115.294 68.9361C116.298 69.5315 142.323 84.4092 145.429 97.7014C145.429 97.7014 135.945 80.6563 114.05 70.2339L115.294 68.9428V68.9361ZM115.952 57.1758C120.368 49.7704 131.01 32.8257 138.998 27.4606C138.998 27.4606 121.945 48.5195 115.952 57.1758C114.655 59.3499 113.89 60.7079 113.89 60.7079C113.89 60.3132 114.675 59.0222 115.952 57.1758Z" fill="var(--fill-0, white)"/>
<path id="Vector_12" d="M81.474 75.9605C83.6556 105.087 116.684 105 116.684 105C115.527 72.6759 84.7264 73.5991 83.4161 73.5121C83.2432 73.4987 83.037 73.4586 82.8109 73.3917C81.4142 73.0037 79.0996 71.8263 78.5942 71.5654C78.5875 71.5654 78.5809 71.5654 78.5742 71.5654C80.3633 72.696 81.474 75.9605 81.474 75.9605ZM85.8304 74.0339C113.645 96.4909 114.27 103.348 114.27 103.348C111.37 95.3603 83.5225 74.462 83.5225 74.462L85.8304 74.0339Z" fill="var(--fill-0, white)"/>
<path id="Vector_13" d="M39.433 48.8076C39.7124 49.7976 40.1912 50.2994 40.863 50.2994C41.0425 50.2994 41.3019 50.2191 41.6345 50.0585C42.5457 50.0585 43.0179 49.0417 43.0179 47.0014V46.3458C43.7428 44.4058 45.093 43.4425 47.1016 43.4492C47.7534 43.4492 48.2921 43.5295 48.7178 43.6967C51.1786 44.6333 52.4091 47.3492 52.3958 51.838C52.3891 53.6375 51.9634 55.825 51.1188 58.4406C50.6199 59.9658 49.8019 60.7284 48.6646 60.7284C47.7467 60.7284 46.942 60.2535 46.2769 59.3103C45.2194 57.8319 44.3215 57.0826 43.5832 57.0826C43.1376 57.0826 42.6321 57.2967 42.0867 57.7114C41.9138 58.2466 41.8407 58.9289 41.8407 59.7183C41.8274 60.7953 42.2597 61.7921 43.1043 62.7487C43.9623 63.7053 44.9201 64.3208 46.0108 64.6017C46.656 64.8426 47.5139 64.9697 48.5714 64.9763C49.7088 64.9763 50.58 64.8559 51.1919 64.6151C54.6172 62.7755 56.3464 58.7617 56.3664 52.5471C56.3664 50.7944 56.24 49.1354 55.9806 47.5767C55.6813 45.8508 55.3355 44.6734 54.9564 44.0044C54.1849 42.6665 53.1008 41.5962 51.7107 40.8068C50.314 40.0108 48.8774 39.6161 47.3942 39.6094C45.9244 39.6094 44.4678 39.984 43.0312 40.7466C41.8606 41.3687 40.9361 42.3923 40.2378 43.8171C39.6192 45.1082 39.3066 46.4595 39.3066 47.8577C39.3066 47.9647 39.3266 48.1252 39.3665 48.3326C39.3998 48.5467 39.433 48.7005 39.433 48.8009V48.8076Z" fill="var(--fill-0, white)"/>
<path id="Vector_14" d="M71.9162 40.867C70.5261 40.071 69.0828 39.683 67.6063 39.6763C66.1365 39.6763 64.6799 40.0442 63.2366 40.8135C62.0727 41.4356 61.1416 42.4658 60.4499 43.884C59.838 45.1751 59.532 46.5197 59.5254 47.9312C59.5254 48.0316 59.5453 48.1921 59.5786 48.3995C59.6185 48.6136 59.6385 48.7741 59.6385 48.8678C59.9178 49.8512 60.3967 50.3529 61.0751 50.3529C61.2613 50.3529 61.514 50.2726 61.8399 50.1187C62.7578 50.1187 63.2233 49.1019 63.23 47.0683V46.3993C63.9483 44.4593 65.3184 43.496 67.307 43.5027C67.9588 43.5027 68.4976 43.583 68.9232 43.7502C71.3907 44.6801 72.6145 47.4028 72.6079 51.8982C72.6012 53.6843 72.1755 55.8852 71.3242 58.4941C70.832 60.0194 70.014 60.782 68.8634 60.782C67.9455 60.782 67.1541 60.307 66.4823 59.3638C65.4248 57.8854 64.5269 57.1361 63.7887 57.1361C63.3364 57.1361 62.8442 57.3502 62.2988 57.765C62.1259 58.3135 62.0461 58.9758 62.0395 59.7852C62.0395 60.8422 62.4651 61.8456 63.3031 62.8089C64.1611 63.7521 65.1255 64.381 66.2096 64.6552C66.8614 64.8961 67.7127 65.0232 68.7702 65.0232C69.9142 65.0365 70.7855 64.9094 71.3907 64.6686C74.8226 62.8357 76.5452 58.8085 76.5652 52.5939C76.5718 50.8479 76.4388 49.1889 76.1794 47.6235C75.8868 45.9177 75.5409 44.7336 75.1618 44.058C74.397 42.72 73.3129 41.643 71.9162 40.8536V40.867Z" fill="var(--fill-0, white)"/>
<path id="Vector_15" d="M57.2446 36.1771C58.668 36.6253 59.925 36.8528 61.0025 36.8528C63.0443 36.8528 64.7403 36.4514 66.0838 35.6487C67.0415 34.9061 67.5271 34.3308 67.5337 33.8826C67.4738 33.5883 67.4073 33.2739 67.3475 32.9594C66.8952 32.4377 66.3698 32.1768 65.7512 32.1768C65.3921 32.1768 64.5408 32.4577 63.1973 33.0263C61.8604 33.595 60.7963 33.8759 59.9915 33.8692L59.7388 33.809C59.0737 33.6418 58.7345 33.2872 58.7345 32.7387C58.7345 32.4176 58.7611 32.1768 58.801 32.0162C59.5193 30.3639 61.0357 29.5411 63.3369 29.5411C64.0686 29.5411 64.8135 29.6013 65.5717 29.7217C66.7023 29.7217 68.2188 30.5378 70.1209 32.1634C72.0032 33.8023 73.5063 34.6051 74.6236 34.6185C74.7101 34.6185 74.8365 34.585 75.0227 34.5382C75.2089 34.4847 75.455 34.5583 75.455 34.4579C75.2887 31.849 72.6949 30.1431 72.6949 30.1431C71.9832 29.6414 71.3248 29.1597 70.7129 28.7115C69.5223 27.8419 68.3917 27.2064 67.3342 26.7916C66.1969 26.524 64.9864 26.3903 63.7027 26.3903C60.1977 26.3769 57.6969 27.5007 56.1805 29.7618C55.5886 30.6582 55.2893 31.762 55.2893 33.0665C55.276 34.7322 55.9278 35.7557 57.238 36.1705L57.2446 36.1771Z" fill="var(--fill-0, white)"/>
<path id="Vector_16" d="M94.3512 57.5037C94.2314 58.8483 94.1782 59.9387 94.1716 60.7615V62.9959L94.4975 64.4141L95.0495 64.7753C96.945 64.7887 97.9161 64.1264 97.956 62.8019L98.2353 57.1625C98.355 55.2292 98.4149 53.4966 98.4215 51.9513C98.4215 48.2185 98.2686 45.817 97.9294 44.7734C97.4106 43.2281 96.3864 42.0307 94.8433 41.1811C93.4599 40.4118 91.8703 40.0238 90.1012 40.0171C87.8931 40.3583 85.9111 41.0005 84.1286 41.9571C81.8473 43.188 80.3242 44.7533 79.5527 46.6398C79.7722 46.9877 80.2511 47.3154 81.0226 47.6432C81.5347 47.8573 81.8008 48.4527 81.7941 49.4227V49.6635C81.7941 49.6635 81.681 50.7673 81.435 53.0351C81.3152 54.8412 81.2554 56.3999 81.2554 57.7044C81.2421 61.4171 81.7409 63.725 82.7519 64.6148C83.7428 64.9359 84.4345 65.1031 84.8469 65.1031C86.8089 65.1031 88.2123 64.4743 89.0769 63.2166C89.4959 62.8822 89.7154 62.3737 89.7154 61.6914C89.7154 60.7549 89.343 60.1662 88.5981 59.9454H88.4717C88.1657 59.9454 87.8332 60.1461 87.4607 60.5475C86.6626 61.3904 86.1838 61.7984 86.0241 61.7984L85.665 61.6178C85.5187 61.6178 85.3457 60.7816 85.1262 59.0825C84.9068 57.2495 84.8004 55.5102 84.8004 53.8378C84.8004 53.5568 84.8802 52.5601 85.0464 50.8476L85.2327 49.6702C85.2992 49.1685 85.3324 48.8206 85.3324 48.6132C85.3324 47.7235 84.8469 47.1549 83.8692 46.8873C85.532 44.6797 87.6736 43.576 90.2874 43.5826H91.0656C93.573 44.265 94.8234 46.3588 94.8167 49.8709C94.6903 50.7205 94.6371 51.3827 94.6371 51.8711C94.6371 52.6136 94.5374 54.4934 94.3578 57.5104L94.3512 57.5037Z" fill="var(--fill-0, white)"/>
<path id="Vector_17" d="M80.1382 36.251C81.5682 36.6925 82.8186 36.9199 83.9027 36.9199C85.9379 36.9333 87.6405 36.5319 88.984 35.7158C89.9484 34.9866 90.4207 34.4046 90.4273 33.9564C90.3741 33.6554 90.3142 33.3544 90.2477 33.0333C89.8021 32.5115 89.2767 32.2506 88.6581 32.2506C88.2923 32.2506 87.4344 32.5315 86.0975 33.1002C84.7607 33.6621 83.6899 33.9497 82.8984 33.9497L82.6523 33.8829C81.9739 33.7223 81.6414 33.3744 81.648 32.8192C81.648 32.4981 81.668 32.2506 81.7012 32.0967C82.4262 30.4377 83.9426 29.6082 86.2372 29.6149C86.9821 29.6149 87.7137 29.6818 88.4719 29.7955C89.6159 29.7955 91.1323 30.6183 93.0212 32.2372C94.9101 33.8628 96.4198 34.6856 97.5372 34.6856C97.617 34.6856 97.7567 34.6655 97.9362 34.612C98.1225 34.5652 98.2688 34.5384 98.3686 34.5384C98.6412 32.9798 98.8607 31.7087 99.0204 30.7521C99.2332 29.5079 99.333 28.19 99.3396 26.7785C99.3396 26.6046 99.2997 26.3236 99.2066 25.9557C99.1268 25.5811 99.0802 25.3068 99.0869 25.1328C99.0869 24.0625 98.5814 23.5407 97.5638 23.5273C96.5595 23.5273 96.0407 23.9488 96.0407 24.8117L95.8811 27.3404C95.7946 28.8255 95.7015 29.7821 95.5951 30.2236C94.8901 29.7152 94.2317 29.2403 93.6198 28.7988C92.4226 27.9224 91.2986 27.2869 90.2344 26.8788C89.0971 26.6113 87.8866 26.4775 86.603 26.4775C83.0979 26.4574 80.5972 27.5879 79.0874 29.8356C78.4955 30.7454 78.1962 31.8425 78.1895 33.147C78.1829 34.8127 78.8346 35.8496 80.1382 36.251Z" fill="var(--fill-0, white)"/>
<path id="Vector_18" d="M5.33408 38.0505C6.40489 38.0505 7.30277 37.3949 8.05433 36.0636C8.78594 34.7458 9.1983 34.0835 9.26481 34.0835H9.46433C10.0031 34.0835 10.2758 34.612 10.2758 35.669C10.2758 36.0369 10.2558 36.5721 10.2159 37.2611C10.176 37.9501 10.1627 38.492 10.1627 38.8465C10.156 40.7062 9.98976 43.5025 9.65721 47.242C9.32466 50.9815 9.15839 53.771 9.15839 55.6307C9.15839 57.6175 9.38452 59.6445 9.85009 61.745C10.4221 62.9692 11.3798 64.0396 12.73 64.9694C13.4948 65.5113 14.712 66.1468 16.3547 66.9161C17.9975 67.6787 20.6978 68.0667 24.4224 68.0667C29.3042 68.0667 32.643 66.896 34.472 64.5145L34.5718 62.2802C34.7181 59.397 33.7071 56.3198 31.5655 53.0419C29.0914 49.4295 27.2158 46.7402 25.9521 44.9809C23.9502 42.0375 22.9459 39.4486 22.9459 37.2209C24.1231 34.7726 26.1982 33.1068 29.1911 32.2104C31.0667 31.6552 33.7337 31.3742 37.1789 31.3742C37.8839 30.8458 38.2431 30.237 38.2431 29.5413C38.2431 27.2267 36.2145 26.0627 32.1641 26.056H31.1066C28.3597 26.0493 25.6062 26.9256 22.8594 28.6783C19.6736 30.6986 17.7248 33.2875 17.0132 36.445C16.9134 35.8161 16.7738 35.0535 16.6141 34.1571C16.2084 32.1101 15.9956 30.9929 15.9623 30.8391C14.8982 28.5178 13.2288 27.1263 10.9409 26.6581C8.49329 27.026 6.10559 28.4375 3.79771 30.9127C3.25898 32.1368 2.98629 33.361 2.98629 34.5852C2.98629 36.6122 3.56492 37.7695 4.73549 38.0705H5.34073L5.33408 38.0505ZM16.6407 44.2584C16.8403 42.4388 16.94 40.9537 16.94 39.7898C17.4389 42.0308 18.4498 44.3186 19.9862 46.6399C21.9283 49.4295 23.3782 51.5166 24.3492 52.9014C26.0519 55.3297 27.2623 57.7313 27.974 60.0927C27.4685 61.7584 25.9521 62.608 23.4247 62.608C21.1434 62.608 19.4408 62.1665 18.3301 61.3035C17.2526 60.775 16.5343 59.6713 16.1685 57.9788C15.9623 57.0556 15.8692 55.3498 15.8692 52.8746C15.8692 51.6772 16.1286 48.8073 16.6341 44.2517L16.6407 44.2584Z" fill="var(--fill-0, white)"/>
<path id="Vector_19" d="M9.41781 22.2563C12.7699 22.2697 15.57 21.5807 17.7847 20.236C19.3677 19.0185 20.1658 18.0419 20.1658 17.3127C20.066 16.8243 19.9663 16.3026 19.8665 15.7808C19.1216 14.9178 18.2436 14.4897 17.246 14.4897C16.6341 14.4897 15.2308 14.958 13.0293 15.9079C10.8278 16.8511 9.06531 17.3328 7.74841 17.3261L7.34936 17.2257C6.23864 16.9648 5.69326 16.4029 5.69326 15.5132C5.69326 14.9981 5.72652 14.5967 5.78638 14.3425C6.9769 11.68 9.46437 10.3488 13.2621 10.3555C14.4725 10.3555 15.703 10.4157 16.9401 10.5294C18.8223 10.5294 21.3297 11.8607 24.449 14.4964C27.575 17.1388 30.0491 18.4633 31.9047 18.47C32.0378 18.47 32.2506 18.4299 32.5565 18.3496C32.8558 18.2693 33.0953 18.2292 33.2682 18.2292C33.6939 15.6403 34.053 13.5464 34.3324 11.9476C34.6716 9.89392 34.8378 7.70642 34.8445 5.38513C34.8445 5.09079 34.7913 4.6292 34.6849 4.02045C34.5585 3.39832 34.5053 2.94342 34.5053 2.64908C34.5053 0.889717 33.6606 0.0133792 31.9646 0C30.262 0 29.4173 0.709098 29.4106 2.14067L29.1512 6.32836C29.0182 8.79683 28.8586 10.3956 28.699 11.1248C27.5284 10.302 26.4376 9.53937 25.4267 8.8169C23.4447 7.41208 21.5891 6.37519 19.8399 5.71961C17.9643 5.29148 15.969 5.0841 13.854 5.07072C8.08096 5.07072 3.95736 6.92374 1.46324 10.6365C0.492203 12.1282 3.06032e-05 13.9344 3.06032e-05 16.0751C-0.00662037 18.7978 1.07084 20.5036 3.21245 21.1659C5.56689 21.8884 7.63535 22.2496 9.41781 22.2563Z" fill="var(--fill-0, white)"/>
<g id="Group_2">
<path id="Vector_20" d="M157.008 31.7689C157.56 31.6551 158.371 31.5815 159.123 31.5815C160.293 31.5815 161.065 31.809 161.597 32.2906C162.016 32.6586 162.269 33.2473 162.269 33.9229C162.269 35.0468 161.55 35.7893 160.666 36.1037V36.1439C161.311 36.3713 161.703 36.9801 161.916 37.8698C162.196 39.0672 162.395 39.89 162.561 40.2245H161.424C161.278 39.977 161.092 39.2411 160.865 38.1708C160.613 36.9867 160.14 36.5452 159.143 36.5051H158.105V40.2245H157.008V31.7755M158.112 35.6622H159.236C160.42 35.6622 161.165 35.0133 161.165 34.0299C161.165 32.9262 160.373 32.4445 159.203 32.4445C158.671 32.4445 158.298 32.498 158.112 32.5448V35.6622Z" fill="var(--fill-0, white)"/>
<path id="Vector_21" d="M165.881 35.9231C165.881 39.6024 162.908 42.5859 159.25 42.5859C155.592 42.5859 152.619 39.6024 152.619 35.9231C152.619 32.2438 155.585 29.2603 159.25 29.2603C162.915 29.2603 165.881 32.2438 165.881 35.9231ZM159.25 30.2369C156.124 30.2369 153.597 32.779 153.597 35.9231C153.597 39.0672 156.124 41.6026 159.25 41.6026C162.376 41.6026 164.897 39.0605 164.897 35.9231C164.897 32.7857 162.369 30.2369 159.25 30.2369Z" fill="var(--fill-0, white)"/>
<path id="Vector_22" d="M157.008 31.7689C157.56 31.6551 158.371 31.5815 159.123 31.5815C160.293 31.5815 161.065 31.809 161.597 32.2906C162.016 32.6586 162.269 33.2473 162.269 33.9229C162.269 35.0468 161.55 35.7893 160.666 36.1037V36.1439C161.311 36.3713 161.703 36.9801 161.916 37.8698C162.196 39.0672 162.395 39.89 162.561 40.2245H161.424C161.278 39.977 161.092 39.2411 160.865 38.1708C160.613 36.9867 160.14 36.5452 159.143 36.5051H158.105V40.2245H157.008V31.7755M158.112 35.6622H159.236C160.42 35.6622 161.165 35.0133 161.165 34.0299C161.165 32.9262 160.373 32.4445 159.203 32.4445C158.671 32.4445 158.298 32.498 158.112 32.5448V35.6622Z" fill="var(--fill-0, white)"/>
<path id="Vector_23" d="M165.881 35.9231C165.881 39.6024 162.908 42.5859 159.25 42.5859C155.592 42.5859 152.619 39.6024 152.619 35.9231C152.619 32.2438 155.585 29.2603 159.25 29.2603C162.915 29.2603 165.881 32.2438 165.881 35.9231ZM159.25 30.2369C156.124 30.2369 153.597 32.779 153.597 35.9231C153.597 39.0672 156.124 41.6026 159.25 41.6026C162.376 41.6026 164.897 39.0605 164.897 35.9231C164.897 32.7857 162.369 30.2369 159.25 30.2369Z" fill="var(--fill-0, white)"/>
</g>
</g>
<defs>
<clipPath id="clip0_0_162">
<rect width="178" height="105" fill="white"/>
</clipPath>
</defs>
</svg>
