<svg preserveAspectRatio="none" width="100%" height="100%" overflow="visible" style="display: block;" viewBox="0 0 115 67" fill="none" xmlns="http://www.w3.org/2000/svg">
<g id="Layer_1" clip-path="url(#clip0_0_591)">
<g id="Group">
<path id="Vector" d="M6.77277 58.5738C6.28721 58.8854 5.68133 59.0391 4.94655 59.0391C4.08286 59.0391 3.39105 58.8214 2.86681 58.3817C2.36837 57.9676 2.11914 57.4298 2.11914 56.7682C2.11914 56.1065 2.37266 55.5943 2.87971 55.1632C3.40823 54.7192 4.09575 54.493 4.94655 54.493C5.60399 54.493 6.18408 54.6339 6.68683 54.9199C7.24543 55.2357 7.52474 55.6455 7.52474 56.1449H6.04658C5.99072 55.6925 5.60829 55.4662 4.91218 55.4662C4.46099 55.4662 4.11294 55.6028 3.8766 55.876C3.68754 56.1108 3.593 56.4096 3.593 56.7682C3.593 57.1267 3.69183 57.4213 3.8895 57.6518C4.12153 57.9292 4.46099 58.0701 4.91218 58.0701C5.5954 58.0701 5.97353 57.8012 6.04658 57.2633H7.52474C7.52474 57.8182 7.27551 58.2579 6.77277 58.5823V58.5738Z" fill="var(--fill-0, #006038)"/>
<path id="Vector_2" d="M12.1741 58.9537V57.1523H10.249V58.9537H8.77946V54.5826H10.249V56.1791H12.1741V54.5912H13.6393V58.9537H12.1741Z" fill="var(--fill-0, #006038)"/>
<path id="Vector_3" d="M15.1484 58.9537V54.5826H16.618V58.9537H15.1484Z" fill="var(--fill-0, #006038)"/>
<path id="Vector_4" d="M21.0169 58.9537H19.3282L17.5664 54.5826H19.0832L20.1919 57.831L21.3134 54.5826H22.8431L21.0169 58.9537Z" fill="var(--fill-0, #006038)"/>
<path id="Vector_5" d="M27.3688 58.9537L27.0251 58.1725H25.0528L24.6961 58.9537H23.2051L25.302 54.5826H26.7931L28.9029 58.9537H27.3731H27.3688ZM26.0497 55.7907L25.3965 57.3231H26.6684L26.054 55.7907H26.0497Z" fill="var(--fill-0, #006038)"/>
<path id="Vector_6" d="M32.7102 58.9537H31.0215L29.2598 54.5826H30.7766L31.8852 57.831L33.0067 54.5826H34.5365L32.7102 58.9537Z" fill="var(--fill-0, #006038)"/>
<path id="Vector_7" d="M35.459 58.9537V54.5826H36.9286V58.9537H35.459Z" fill="var(--fill-0, #006038)"/>
<path id="Vector_8" d="M41.2302 55.5559V58.9537H39.765V55.5559H38.0977V54.5826H42.9189V55.5559H41.2302Z" fill="var(--fill-0, #006038)"/>
<path id="Vector_9" d="M47.4608 58.9537V57.1523H45.5358V58.9537H44.0662V54.5826H45.5358V56.1791H47.4608V54.5912H48.9261V58.9537H47.4608Z" fill="var(--fill-0, #006038)"/>
<path id="Vector_10" d="M50.4336 58.9537V54.5826H51.9032V58.9537H50.4336Z" fill="var(--fill-0, #006038)"/>
</g>
<path id="Vector_11" d="M114.999 39.4846C99.3838 23.9554 84.989 39.0748 84.989 39.0748C80.2322 40.1334 75.454 41.0768 70.7316 41.9134L73.1207 39.3138C93.7591 35.4465 90.2356 17.0573 90.2356 17.0573C69.464 17.8641 71.7672 39.5443 71.7672 39.5443C71.793 39.5443 71.8144 39.5358 71.8402 39.5315L70.2246 41.2646L69.5499 41.9774H69.5585L69.4038 42.1439C36.4804 47.8724 6.68517 48.5767 6.68517 48.5767C3.33352 47.3388 3.06711 47.0443 3.06711 47.0443C1.22801 48.8414 8.40396 49.8616 8.40396 49.8616C13.3197 50.7708 32.7205 48.3206 50.7679 45.6613C50.7507 45.6484 50.7335 45.6356 50.712 45.6228C50.712 45.6228 50.7378 45.6356 50.7807 45.657C57.7075 44.6368 64.4279 43.5867 70.057 42.686C70.3707 43.2623 72.2785 44.7051 72.2785 44.7051C72.8414 63.9394 94.7689 64.3791 94.7689 64.3791C94.1974 42.9848 73.4903 43.6934 73.4903 43.6934L71.0238 42.6818C70.9164 42.6391 70.8218 42.6092 70.7316 42.5793C79.1881 41.2219 85.0148 40.2231 85.0148 40.2231C100.432 53.9253 115.003 39.476 115.003 39.476L114.999 39.4846ZM87.0644 38.554C105.67 36.4496 111.845 38.6565 113.207 39.3138C109.525 37.7729 87.3308 39.301 86.7164 39.3651L87.0644 38.5583V38.554ZM74.4872 43.988C75.136 44.3679 91.9501 53.8612 93.9568 62.343C93.9568 62.343 87.8293 51.4666 73.6836 44.8161L74.4872 43.9922V43.988ZM74.9126 36.4838C77.7658 31.7584 84.6409 20.946 89.8016 17.5226C89.8016 17.5226 78.7841 30.9602 74.9126 36.4838C74.0747 37.8711 73.5805 38.7376 73.5805 38.7376C73.5805 38.4857 74.0875 37.6619 74.9126 36.4838Z" fill="var(--fill-0, #006038)"/>
<path id="Vector_12" d="M52.6372 48.47C54.0466 67.0555 75.3854 67 75.3854 67C74.6377 46.3741 54.7384 46.9632 53.8919 46.9077C53.7801 46.8992 53.6469 46.8735 53.5008 46.8309C52.5985 46.5833 51.1031 45.832 50.7766 45.6655C50.7723 45.6655 50.768 45.6655 50.7637 45.6655C51.9196 46.3869 52.6372 48.47 52.6372 48.47ZM55.4517 47.2406C73.4216 61.5703 73.8255 65.9457 73.8255 65.9457C71.9521 60.849 53.9606 47.5138 53.9606 47.5138L55.4517 47.2406Z" fill="var(--fill-0, #006038)"/>
<path id="Vector_13" d="M25.4762 31.1437C25.6566 31.7755 25.966 32.0956 26.4 32.0956C26.516 32.0956 26.6836 32.0444 26.8985 31.942C27.4872 31.942 27.7922 31.2931 27.7922 29.9912V29.5729C28.2606 28.335 29.1329 27.7203 30.4306 27.7246C30.8517 27.7246 31.1997 27.7758 31.4748 27.8825C33.0646 28.4801 33.8596 30.2132 33.851 33.0774C33.8467 34.2257 33.5717 35.6215 33.026 37.2905C32.7037 38.2638 32.1752 38.7504 31.4404 38.7504C30.8474 38.7504 30.3275 38.4473 29.8978 37.8454C29.2145 36.9021 28.6345 36.424 28.1575 36.424C27.8696 36.424 27.543 36.5606 27.1907 36.8252C27.0789 37.1667 27.0317 37.6021 27.0317 38.1058C27.0231 38.7931 27.3024 39.4291 27.8481 40.0395C28.4024 40.6499 29.0212 41.0426 29.7259 41.2219C30.1427 41.3756 30.697 41.4567 31.3802 41.4609C32.115 41.4609 32.6779 41.3841 33.0732 41.2304C35.2862 40.0566 36.4034 37.4954 36.4163 33.5299C36.4163 32.4115 36.3346 31.3529 36.1671 30.3583C35.9737 29.257 35.7502 28.5057 35.5053 28.0789C35.0069 27.2252 34.3065 26.5422 33.4084 26.0385C32.506 25.5305 31.5779 25.2787 30.6197 25.2744C29.67 25.2744 28.729 25.5134 27.8008 26.0001C27.0446 26.397 26.4473 27.0501 25.9961 27.9594C25.5965 28.7832 25.3945 29.6454 25.3945 30.5376C25.3945 30.6059 25.4074 30.7083 25.4332 30.8407C25.4547 30.9773 25.4762 31.0754 25.4762 31.1395V31.1437Z" fill="var(--fill-0, #006038)"/>
<path id="Vector_14" d="M46.4623 26.0769C45.5642 25.5689 44.6318 25.3214 43.6779 25.3171C42.7282 25.3171 41.7872 25.5519 40.8547 26.0428C40.1028 26.4397 39.5012 27.0971 39.0543 28.002C38.659 28.8259 38.4613 29.6839 38.457 30.5845C38.457 30.6486 38.4699 30.751 38.4914 30.8834C38.5172 31.0199 38.5301 31.1224 38.5301 31.1822C38.7106 31.8096 39.0199 32.1298 39.4582 32.1298C39.5785 32.1298 39.7418 32.0786 39.9524 31.9804C40.5454 31.9804 40.8462 31.3316 40.8504 30.0339V29.607C41.3145 28.3691 42.1997 27.7545 43.4845 27.7587C43.9056 27.7587 44.2537 27.81 44.5287 27.9167C46.1228 28.51 46.9135 30.2473 46.9092 33.1158C46.9049 34.2555 46.6299 35.6599 46.0799 37.3247C45.7619 38.2979 45.2334 38.7845 44.49 38.7845C43.897 38.7845 43.3857 38.4815 42.9517 37.8796C42.2684 36.9362 41.6884 36.4581 41.2114 36.4581C40.9192 36.4581 40.6012 36.5947 40.2489 36.8594C40.1371 37.2094 40.0856 37.632 40.0813 38.1485C40.0813 38.823 40.3563 39.4632 40.8977 40.0779C41.452 40.6798 42.0751 41.081 42.7755 41.2561C43.1966 41.4097 43.7466 41.4908 44.4298 41.4908C45.1689 41.4994 45.7318 41.4183 46.1228 41.2646C48.3401 40.095 49.453 37.5253 49.4659 33.5598C49.4702 32.4457 49.3842 31.387 49.2167 30.3882C49.0276 29.2997 48.8042 28.5442 48.5592 28.113C48.0651 27.2593 47.3647 26.5721 46.4623 26.0684V26.0769Z" fill="var(--fill-0, #006038)"/>
<path id="Vector_15" d="M36.9841 23.0846C37.9036 23.3706 38.7158 23.5157 39.4119 23.5157C40.731 23.5157 41.8268 23.2596 42.6948 22.7474C43.3135 22.2736 43.6272 21.9065 43.6315 21.6205C43.5928 21.4327 43.5499 21.232 43.5112 21.0314C43.219 20.6985 42.8795 20.532 42.4799 20.532C42.2479 20.532 41.6979 20.7113 40.8299 21.0741C39.9662 21.4369 39.2787 21.6162 38.7587 21.6119L38.5954 21.5735C38.1658 21.4668 37.9466 21.2406 37.9466 20.8905C37.9466 20.6857 37.9638 20.532 37.9896 20.4295C38.4537 19.3752 39.4334 18.8502 40.9201 18.8502C41.3928 18.8502 41.874 18.8886 42.3639 18.9654C43.0944 18.9654 44.0741 19.4862 45.303 20.5234C46.5191 21.5693 47.4902 22.0815 48.2121 22.09C48.2679 22.09 48.3496 22.0687 48.4699 22.0388C48.5902 22.0047 48.7492 22.0516 48.7492 21.9876C48.6418 20.3228 46.966 19.2343 46.966 19.2343C46.5062 18.9142 46.0808 18.6068 45.6855 18.3208C44.9163 17.7659 44.1858 17.3604 43.5026 17.0958C42.7678 16.925 41.9858 16.8396 41.1564 16.8396C38.8919 16.8311 37.2763 17.5482 36.2966 18.991C35.9141 19.563 35.7208 20.2673 35.7208 21.0997C35.7122 22.1626 36.1333 22.8157 36.9798 23.0803L36.9841 23.0846Z" fill="var(--fill-0, #006038)"/>
<path id="Vector_16" d="M60.9573 36.6929C60.8799 37.5509 60.8455 38.2467 60.8412 38.7717V40.1974L61.0518 41.1024L61.4084 41.3329C62.6331 41.3414 63.2604 40.9188 63.2862 40.0737L63.4667 36.4752C63.544 35.2416 63.5827 34.136 63.587 33.15C63.587 30.7681 63.4882 29.2357 63.269 28.5698C62.9339 27.5837 62.2721 26.8196 61.2752 26.2775C60.3815 25.7866 59.3545 25.5391 58.2115 25.5348C56.7849 25.7525 55.5044 26.1623 54.3528 26.7727C52.8789 27.5581 51.8949 28.557 51.3965 29.7607C51.5383 29.9827 51.8477 30.1918 52.3461 30.401C52.677 30.5376 52.8489 30.9175 52.8446 31.5364V31.6901C52.8446 31.6901 52.7715 32.3944 52.6125 33.8415C52.5352 34.994 52.4965 35.9886 52.4965 36.821C52.4879 39.1901 52.8102 40.6627 53.4633 41.2304C54.1036 41.4353 54.5505 41.5421 54.8169 41.5421C56.0845 41.5421 56.9911 41.1408 57.5498 40.3383C57.8205 40.1249 57.9623 39.8005 57.9623 39.3651C57.9623 38.7675 57.7216 38.3918 57.2404 38.251H57.1587C56.9611 38.251 56.7462 38.379 56.5056 38.6351C55.99 39.173 55.6806 39.4334 55.5774 39.4334L55.3454 39.3181C55.2509 39.3181 55.1392 38.7845 54.9974 37.7003C54.8555 36.5307 54.7868 35.4209 54.7868 34.3537C54.7868 34.1744 54.8384 33.5384 54.9458 32.4457L55.0661 31.6944C55.1091 31.3742 55.1306 31.1523 55.1306 31.0199C55.1306 30.4522 54.8169 30.0894 54.1852 29.9186C55.2595 28.51 56.6431 27.8057 58.3318 27.81H58.8346C60.4545 28.2454 61.2623 29.5814 61.258 31.8224C61.1764 32.3646 61.142 32.7871 61.142 33.0988C61.142 33.5726 61.0776 34.772 60.9616 36.6972L60.9573 36.6929Z" fill="var(--fill-0, #006038)"/>
<path id="Vector_17" d="M51.7747 23.1316C52.6985 23.4133 53.5064 23.5584 54.2068 23.5584C55.5216 23.567 56.6217 23.3108 57.4896 22.7901C58.1127 22.3248 58.4178 21.9534 58.4221 21.6674C58.3877 21.4753 58.349 21.2833 58.3061 21.0784C58.0182 20.7454 57.6787 20.5789 57.2791 20.5789C57.0428 20.5789 56.4885 20.7582 55.6248 21.1211C54.7611 21.4796 54.0693 21.6632 53.5579 21.6632L53.3989 21.6205C52.9606 21.518 52.7458 21.2961 52.7501 20.9418C52.7501 20.7369 52.763 20.5789 52.7845 20.4808C53.2528 19.4221 54.2325 18.8928 55.715 18.8971C56.1963 18.8971 56.6689 18.9398 57.1588 19.0124C57.8979 19.0124 58.8776 19.5374 60.0979 20.5704C61.3183 21.6077 62.2937 22.1327 63.0156 22.1327C63.0671 22.1327 63.1574 22.1199 63.2734 22.0858C63.3937 22.0559 63.4882 22.0388 63.5527 22.0388C63.7289 21.0442 63.8707 20.2332 63.9738 19.6228C64.1113 18.8288 64.1757 17.9879 64.18 17.0872C64.18 16.9762 64.1543 16.797 64.0941 16.5622C64.0425 16.3231 64.0125 16.1481 64.0168 16.0371C64.0168 15.3542 63.6902 15.0212 63.0328 15.0127C62.3839 15.0127 62.0487 15.2816 62.0487 15.8323L61.9456 17.4458C61.8898 18.3934 61.8296 19.0038 61.7608 19.2856C61.3054 18.9611 60.88 18.6581 60.4846 18.3763C59.7112 17.8172 58.985 17.4116 58.2975 17.1513C57.5627 16.9805 56.7807 16.8951 55.9513 16.8951C53.6868 16.8823 52.0712 17.6037 51.0958 19.038C50.7133 19.6185 50.52 20.3186 50.5157 21.1509C50.5114 22.2138 50.9325 22.8754 51.7747 23.1316Z" fill="var(--fill-0, #006038)"/>
<path id="Vector_18" d="M3.44652 24.2798C4.13833 24.2798 4.71843 23.8615 5.20398 23.012C5.67665 22.1711 5.94306 21.7485 5.98603 21.7485H6.11494C6.463 21.7485 6.63917 22.0858 6.63917 22.7602C6.63917 22.995 6.62628 23.3365 6.6005 23.7761C6.57472 24.2158 6.56613 24.5615 6.56613 24.7878C6.56183 25.9745 6.4544 27.7587 6.23956 30.1449C6.02471 32.531 5.91728 34.311 5.91728 35.4977C5.91728 36.7655 6.06338 38.0589 6.36417 39.3992C6.73371 40.1804 7.35247 40.8633 8.22476 41.4567C8.71891 41.8024 9.50526 42.208 10.5666 42.6988C11.628 43.1855 13.3725 43.433 15.7788 43.433C18.9328 43.433 21.0899 42.686 22.2716 41.1664L22.336 39.7407C22.4306 37.9009 21.7774 35.9374 20.3938 33.8458C18.7953 31.5407 17.5836 29.8247 16.7671 28.7021C15.4738 26.8239 14.8249 25.172 14.8249 23.7505C15.5855 22.1882 16.9261 21.1253 18.8598 20.5533C20.0715 20.199 21.7946 20.0198 24.0204 20.0198C24.4759 19.6825 24.708 19.2941 24.708 18.8502C24.708 17.3732 23.3974 16.6305 20.7805 16.6262H20.0973C18.3227 16.6219 16.5437 17.1811 14.7691 18.2995C12.7108 19.5886 11.4518 21.2406 10.992 23.2554C10.9276 22.8541 10.8373 22.3675 10.7342 21.7955C10.4721 20.4893 10.3346 19.7764 10.3131 19.6783C9.62557 18.1971 8.54703 17.3092 7.06887 17.0104C5.48759 17.2452 3.94497 18.1458 2.45392 19.7252C2.10586 20.5064 1.92969 21.2875 1.92969 22.0687C1.92969 23.3621 2.30352 24.1005 3.05979 24.2926H3.45082L3.44652 24.2798ZM10.7514 28.2411C10.8803 27.08 10.9447 26.1324 10.9447 25.3897C11.267 26.8196 11.9202 28.2795 12.9128 29.7607C14.1675 31.5407 15.1042 32.8725 15.7316 33.7561C16.8316 35.3056 17.6137 36.8381 18.0734 38.3449C17.7469 39.4078 16.7672 39.9499 15.1343 39.9499C13.6604 39.9499 12.5604 39.6681 11.8428 39.1175C11.1467 38.7803 10.6826 38.0759 10.4463 36.996C10.3131 36.4069 10.2529 35.3184 10.2529 33.739C10.2529 32.975 10.4205 31.1437 10.7471 28.2368L10.7514 28.2411Z" fill="var(--fill-0, #006038)"/>
<path id="Vector_19" d="M6.08454 14.2016C8.25022 14.2102 10.0592 13.7705 11.4901 12.9125C12.5128 12.1356 13.0285 11.5124 13.0285 11.0471C12.964 10.7355 12.8995 10.4026 12.8351 10.0696C12.3538 9.51898 11.7866 9.24579 11.1421 9.24579C10.7468 9.24579 9.8401 9.5446 8.4178 10.1507C6.9955 10.7526 5.8568 11.06 5.006 11.0557L4.74818 10.9917C4.03058 10.8252 3.67823 10.4666 3.67823 9.89889C3.67823 9.57021 3.69972 9.31409 3.73839 9.15189C4.50755 7.45298 6.11462 6.60353 8.56819 6.6078C9.35024 6.6078 10.1452 6.64621 10.9444 6.71878C12.1605 6.71878 13.7804 7.56823 15.7957 9.25006C17.8153 10.9362 19.4138 11.7813 20.6126 11.7856C20.6986 11.7856 20.8361 11.76 21.0337 11.7088C21.2271 11.6576 21.3818 11.6319 21.4935 11.6319C21.7685 9.97999 22.0005 8.64392 22.181 7.62373C22.4002 6.31326 22.5076 4.91743 22.5119 3.43623C22.5119 3.24841 22.4775 2.95387 22.4088 2.56543C22.3271 2.16845 22.2927 1.87819 22.2927 1.69037C22.2927 0.567724 21.747 0.00853721 20.6513 0C19.5513 0 19.0056 0.452472 19.0013 1.36595L18.8337 4.0381C18.7477 5.61321 18.6446 6.63341 18.5415 7.09869C17.7852 6.57365 17.0805 6.08703 16.4274 5.62602C15.1469 4.72961 13.948 4.06798 12.8179 3.64966C11.6062 3.37647 10.3171 3.24414 8.95062 3.2356C5.22085 3.2356 2.55672 4.418 0.945355 6.78708C0.317996 7.73898 1.97717e-05 8.8915 1.97717e-05 10.2575C-0.00427721 11.9948 0.691833 13.0833 2.07546 13.5059C3.59659 13.9669 4.93295 14.1974 6.08454 14.2016Z" fill="var(--fill-0, #006038)"/>
<g id="Group_2">
<path id="Vector_20" d="M101.44 20.2716C101.796 20.199 102.32 20.1521 102.806 20.1521C103.562 20.1521 104.061 20.2972 104.404 20.6045C104.675 20.8393 104.838 21.215 104.838 21.6461C104.838 22.3632 104.374 22.837 103.803 23.0376V23.0633C104.22 23.2084 104.473 23.5968 104.611 24.1646C104.791 24.9286 104.92 25.4537 105.027 25.6671H104.293C104.198 25.5092 104.078 25.0396 103.932 24.3566C103.768 23.6011 103.463 23.3194 102.819 23.2938H102.149V25.6671H101.44V20.2759M102.153 22.7559H102.879C103.644 22.7559 104.125 22.3419 104.125 21.7144C104.125 21.0101 103.614 20.7027 102.858 20.7027C102.514 20.7027 102.273 20.7369 102.153 20.7668V22.7559Z" fill="var(--fill-0, #231F20)"/>
<path id="Vector_21" d="M107.172 22.9224C107.172 25.2701 105.251 27.1739 102.888 27.1739C100.524 27.1739 98.6035 25.2701 98.6035 22.9224C98.6035 20.5747 100.52 18.6709 102.888 18.6709C105.255 18.6709 107.172 20.5747 107.172 22.9224ZM102.888 19.2941C100.868 19.2941 99.2352 20.9162 99.2352 22.9224C99.2352 24.9286 100.868 26.5464 102.888 26.5464C104.907 26.5464 106.536 24.9244 106.536 22.9224C106.536 20.9204 104.903 19.2941 102.888 19.2941Z" fill="var(--fill-0, #231F20)"/>
<path id="Vector_22" d="M101.44 20.2716C101.796 20.199 102.32 20.1521 102.806 20.1521C103.562 20.1521 104.061 20.2972 104.404 20.6045C104.675 20.8393 104.838 21.215 104.838 21.6461C104.838 22.3632 104.374 22.837 103.803 23.0376V23.0633C104.22 23.2084 104.473 23.5968 104.611 24.1646C104.791 24.9286 104.92 25.4537 105.027 25.6671H104.293C104.198 25.5092 104.078 25.0396 103.932 24.3566C103.768 23.6011 103.463 23.3194 102.819 23.2938H102.149V25.6671H101.44V20.2759M102.153 22.7559H102.879C103.644 22.7559 104.125 22.3419 104.125 21.7144C104.125 21.0101 103.614 20.7027 102.858 20.7027C102.514 20.7027 102.273 20.7369 102.153 20.7668V22.7559Z" fill="var(--fill-0, #231F20)"/>
<path id="Vector_23" d="M107.172 22.9224C107.172 25.2701 105.251 27.1739 102.888 27.1739C100.524 27.1739 98.6035 25.2701 98.6035 22.9224C98.6035 20.5747 100.52 18.6709 102.888 18.6709C105.255 18.6709 107.172 20.5747 107.172 22.9224ZM102.888 19.2941C100.868 19.2941 99.2352 20.9162 99.2352 22.9224C99.2352 24.9286 100.868 26.5464 102.888 26.5464C104.907 26.5464 106.536 24.9244 106.536 22.9224C106.536 20.9204 104.903 19.2941 102.888 19.2941Z" fill="var(--fill-0, #231F20)"/>
</g>
</g>
<defs>
<clipPath id="clip0_0_591">
<rect width="115" height="67" fill="white"/>
</clipPath>
</defs>
</svg>
